<?xml version="1.0" encoding="UTF-8" standalone="no"?>
<!DOCTYPE svg PUBLIC "-//W3C//DTD SVG 1.1//EN" "http://www.w3.org/Graphics/SVG/1.1/DTD/svg11.dtd">
<svg width="100%" height="100%" viewBox="0 0 128 128" version="1.1" xmlns="http://www.w3.org/2000/svg" xmlns:xlink="http://www.w3.org/1999/xlink" xml:space="preserve" xmlns:serif="http://www.serif.com/" style="fill-rule:evenodd;clip-rule:evenodd;stroke-linejoin:round;stroke-miterlimit:2;">
    <g transform="matrix(1,0,0,1,0,-6.14903)">
        <path d="M35.778,77.481C30,100.289 23.106,128 23.106,128L1.114,128L25.719,41.225C25.719,41.225 34.682,12.298 67.412,12.298C100.142,12.298 108.427,51.275 108.427,56.436C108.427,61.597 108.698,115.377 108.698,115.377L90.454,108.474L90.166,61.431C90.166,61.431 87.672,29.755 64.9,29.755C52.884,29.755 45.515,41.412 43.308,48.542C42.716,50.453 40.99,57.051 38.78,65.684C45.974,65.883 84.739,67.582 84.739,81.082C84.739,91.037 69.154,91.633 69.154,99.3C69.154,109.353 128.176,125.362 128,128L65.008,128C65.008,128 40.122,114.471 40.122,102.65C40.122,92.362 64.259,87.409 64.259,82.297C64.259,76.757 39.581,77.356 35.778,77.481Z"/>
        <path d="M114.674,115.912C115.612,116.248 116.524,116.576 117.405,116.894C122.294,118.66 126.291,120.154 128.568,121.216C129.402,121.605 130.068,121.964 130.557,122.271L132.198,123.583L133.522,125.598L133.892,126.834L133.987,128.399C133.777,131.551 131.159,134 128,134L65.008,134C64.007,134 63.022,133.75 62.143,133.271C62.143,133.271 48.976,126.068 41.062,117.379C37.916,113.925 35.636,110.181 34.656,106.518C31.417,119.447 28.929,129.449 28.929,129.449C28.263,132.123 25.862,134 23.106,134L1.114,134C-0.767,134 -2.538,133.118 -3.672,131.618C-4.806,130.118 -5.171,128.173 -4.658,126.363L19.946,39.589L19.988,39.45C19.988,39.45 30.092,6.298 67.412,6.298C86.302,6.298 98.24,17.378 105.354,29.371C112.285,41.057 114.427,53.533 114.427,56.436C114.427,61.594 114.698,115.347 114.698,115.347C114.699,115.536 114.691,115.725 114.674,115.912ZM84.215,69.549L84.167,61.714C84.053,60.56 83.329,54.282 80.577,48.001C77.966,42.043 73.467,35.755 64.9,35.755C55.86,35.755 50.7,44.952 49.039,50.316C48.634,51.626 47.689,55.174 46.418,60.077C55.415,60.731 69.414,62.367 78.56,66.336C80.704,67.267 82.598,68.345 84.215,69.549ZM84.426,104.006L84.36,93.275C83.807,93.716 83.229,94.138 82.632,94.546C80.806,95.789 78.8,96.873 77.048,98.021C76.631,98.294 76.232,98.568 75.87,98.857C76.685,99.527 77.868,100.447 78.947,101.092C80.558,102.055 82.408,103.03 84.426,104.006ZM37.981,93.271C38.06,93.182 38.141,93.094 38.222,93.005C40.948,90.05 45.145,87.451 49.405,85.218C50.373,84.711 51.341,84.22 52.284,83.744C48.292,83.348 43.804,83.313 40.479,83.36C39.651,86.638 38.811,89.972 37.981,93.271ZM35.778,77.481C39.581,77.356 64.259,76.757 64.259,82.297C64.259,87.409 40.122,92.362 40.122,102.65C40.122,114.471 65.008,128 65.008,128L128,128C128.176,125.362 69.154,109.353 69.154,99.3C69.154,91.633 84.739,91.037 84.739,81.082C84.739,67.582 45.974,65.883 38.78,65.684C40.99,57.051 42.716,50.453 43.308,48.542C45.515,41.412 52.884,29.755 64.9,29.755C87.672,29.755 90.166,61.431 90.166,61.431L90.454,108.474L108.698,115.377C108.698,115.377 108.427,61.597 108.427,56.436C108.427,51.275 100.142,12.298 67.412,12.298C34.682,12.298 25.719,41.225 25.719,41.225L1.114,128L23.106,128C23.106,128 30,100.289 35.778,77.481Z" style="fill:white;"/>
    </g>
</svg>
